# xmcd
#
# Track frame offsets:
#	150
#	4311
#	40988
#	66306
#	110178
#	144782
#	164135
#
# Disc length: 2715 seconds
#
# Revision: 0
# Processed by: cddbd v1.5.2PL0 Copyright (c) Steve Scherf et al.
# Submitted via: audiograbber 1.83.01
#
DISCID=650a9907
DTITLE=King, Albert - Wednesday night in San Francisco
DYEAR=1968
DGENRE=Bluesrock
TTITLE0=Watermelon man
TTITLE1=Why you're so mean to me
TTITLE2=I get evil
TTITLE3=Got to be some changes made
TTITLE4=Personal manager
TTITLE5=Born under a bad sign
TTITLE6=Don't throw your love on me so strong
EXTD=
EXTT0=
EXTT1=
EXTT2=
EXTT3=
EXTT4=
EXTT5=
EXTT6=
PLAYORDER=
